<svg xmlns="http://www.w3.org/2000/svg" xmlns:xlink="http://www.w3.org/1999/xlink" width="212" height="91" viewBox="0 0 212 91">
    <defs>
        <path id="a" d="M211.496 45.074v45.073H0V0h211.496z"/>
    </defs>
    <g fill="none" fill-rule="evenodd">
        <mask id="b" fill="#fff">
            <use xlink:href="#a"/>
        </mask>
        <path fill="#0081C6" d="M180.484 6.892C173.43 4.477 165.738 3.527 160.271 0c7.84.678 29.411 1.994 41.376 2.984 5.02.38 5.155 3.908 1.669 5.996-1.044.61-3.12 2.036-4.382 2.998-1.248.95-.774 1.886.109 2.334 1.695.922 3.635-.271 2.848-2.13v-.013l2.822.04c4.884 0 6.431 2.402 6.784 4.477-5.699-.135-11.532-.23-17.5-.27a529.039 529.039 0 0 0-10.556-.096c-4.205-.04-8.437-.04-12.751-.04-7.259 0-14.353.027-21.3.094 8.886-2.7 20.458-3.717 29.194-5.223 4.111-.705 6.458-2.7 1.9-4.26zM11.328 68.332l5.603-10.106c.203-.407.773-.475 1.085-.461.678.027.746.46.746.46l1.18 10.108h-8.614zm10.92-12.887c-.27-.434-.637-.8-1.044-1.045a3.66 3.66 0 0 0-1.33-.542 9.461 9.461 0 0 0-1.356-.109c-.434 0-.882.041-1.384.136a5.482 5.482 0 0 0-1.492.542c-.516.217-.95.584-1.398.991-.406.434-.772.977-1.153 1.628L.135 80.583c-.067.176-.135.366-.135.583 0 .258.109.543.312.705.204.164.475.231.706.231H3.73c.27 0 .542-.094.786-.23.204-.163.408-.366.502-.583l4.478-9.158H20.28l1.018 9.021c.067.204.136.422.271.61.177.246.475.34.746.34h2.646c.34 0 .65-.067.882-.298.203-.244.27-.543.27-.882v-.176l-3.323-23.605a4.159 4.159 0 0 0-.543-1.696zm105.41 4.45h-2.117c-.271 0-.542.108-.814.27-.19.204-.366.435-.461.68l-3.745 20.213v.203c0 .502.38.841.896.841h2.09c.31 0 .583-.094.813-.27.245-.205.38-.408.448-.68l3.757-20.213v-.19c0-.515-.366-.854-.868-.854zm-48.364 8.953v.068h-11.26c.204-.923.516-1.764.882-2.537a9.347 9.347 0 0 1 1.493-2.035c.583-.556 1.261-1.031 2.007-1.329.773-.313 1.628-.475 2.578-.475 3.12.027 4.503 1.315 4.544 4.137 0 .638-.068 1.384-.244 2.17zm2.482-7.597c-.678-.705-1.559-1.248-2.577-1.628-1.017-.434-2.211-.61-3.636-.61-3.188 0-5.765.855-7.8 2.618s-3.391 4.327-4.07 7.597l-.543 2.849c-.203.909-.27 1.79-.27 2.578 0 1.41.243 2.604.745 3.595.516.977 1.194 1.79 2.035 2.4.815.639 1.764 1.059 2.849 1.33 1.058.272 2.103.407 3.188.407h.04c1.52 0 2.809-.04 4.002-.176 1.181-.109 2.402-.271 3.731-.502.407-.068.678-.15.91-.353.135-.19.243-.434.311-.746l.272-1.383.027-.028v-.176c0-.408-.367-.61-.814-.61h-.23a76.84 76.84 0 0 1-3.636.38c-1.384.121-2.713.189-4.003.189-1.654 0-2.984-.339-3.893-1.004-.923-.624-1.397-1.669-1.397-3.161 0-.38 0-.746.068-1.153.04-.406.135-.814.27-1.262l.11-.338h14.542c.38 0 .678-.123.882-.34.136-.19.244-.434.312-.733l.34-1.736c.203-.854.27-1.696.27-2.482.027-1.073-.176-2.062-.474-3.04a6.587 6.587 0 0 0-1.56-2.482zm22.683-.339c-.57-.61-1.289-1.085-2.13-1.425-.881-.338-1.899-.475-3.093-.475-1.492 0-2.808.177-3.933.584a21.93 21.93 0 0 0-2.877 1.208l.068-.475v-.19a.802.802 0 0 0-.203-.556c-.136-.204-.38-.299-.678-.299h-2.144c-.272 0-.543.095-.774.299-.203.176-.38.406-.447.678l-3.894 20.797v.203c0 .204.068.407.163.57.177.204.407.271.652.271h2.197c.27 0 .543-.094.787-.27.23-.205.366-.435.475-.68l3.215-17.12c1.357-.61 2.51-.99 3.39-1.193a12.236 12.236 0 0 1 2.646-.299c1.601 0 2.619.299 3.12.773.517.489.747 1.167.747 2.117 0 .325-.027.678-.068 1.071a9.9 9.9 0 0 1-.135 1.153l-2.537 13.404v.203c0 .502.366.841.882.841h2.103c.297 0 .57-.094.813-.27.231-.19.366-.408.475-.68l2.537-13.43c.135-.773.19-1.519.19-2.239 0-.88-.095-1.722-.366-2.509a6.026 6.026 0 0 0-1.181-2.062zm44.796 0c-.57-.61-1.289-1.085-2.144-1.425-.868-.338-1.899-.475-3.079-.475-1.533 0-2.85.177-3.935.584-.99.325-1.94.733-2.89 1.208l.082-.475v-.19a.84.84 0 0 0-.217-.556c-.135-.204-.407-.299-.678-.299h-2.13c-.312 0-.583.095-.773.299-.217.176-.353.42-.448.678l-3.934 20.797v.203c0 .204.095.407.203.57.163.204.38.271.68.271h2.17c.27 0 .542-.094.786-.27.19-.19.367-.408.461-.68l3.23-17.12c1.383-.583 2.469-.99 3.39-1.193a12.062 12.062 0 0 1 2.605-.299c1.628 0 2.66.299 3.162.773.501.489.745 1.167.772 2.117 0 .325-.027.678-.054 1.071-.081.407-.108.787-.176 1.153l-2.578 13.404v.203c0 .502.408.841.91.841h2.143c.271 0 .543-.094.787-.27.19-.19.407-.408.46-.68l2.552-13.43c.162-.773.203-1.519.203-2.239 0-.88-.095-1.722-.367-2.509a5.457 5.457 0 0 0-1.193-2.062zm42.842-.516c.027-.475-.353-.8-.814-.868-.489-.068-.923-.15-1.33-.217a18.2 18.2 0 0 0-1.383-.162c-.489-.041-1.032-.096-1.601-.109-.651-.028-1.33-.028-2.198-.028-1.085 0-2.211.096-3.337.272-1.085.203-2.09.543-2.985 1.045a6.335 6.335 0 0 0-2.089 1.98c-.583.868-.854 1.927-.854 3.174 0 1.9 1.288 3.61 3.73 5.101l4.043 2.429c1.004.583 1.682 1.085 1.994 1.465.339.434.474.842.474 1.248 0 .61-.135 1.126-.38 1.506-.27.434-.596.773-1.044 1.004-.448.27-.909.448-1.533.557a8.72 8.72 0 0 1-1.818.189c-.352 0-.854-.027-1.397-.068-.583 0-1.18-.027-1.804-.068-.637-.053-1.276-.094-1.86-.162-.636-.069-1.179-.109-1.722-.163h-.27c-.544-.014-.95.272-1.059.773l-.272 1.452v.149c0 .257.109.502.299.638.176.094.38.176.624.27.502.068 1.045.177 1.655.272.61.068 1.22.136 1.831.177.61.027 1.222.094 1.805.122.597 0 1.14.013 1.628.013 1.18 0 2.36-.108 3.554-.352a8.658 8.658 0 0 0 3.053-1.153 6.394 6.394 0 0 0 2.17-2.171c.543-.882.814-2.035.814-3.378 0-.922-.312-1.805-.855-2.618-.542-.855-1.587-1.724-3.12-2.646l-3.96-2.401c-.788-.475-1.358-.895-1.737-1.289-.408-.38-.57-.76-.57-1.221 0-.556.136-.99.406-1.33.272-.338.61-.61 1.059-.813a4.293 4.293 0 0 1 1.41-.434 10.28 10.28 0 0 1 1.534-.109c1.22 0 2.4.027 3.568.095 1.14.068 2.088.15 2.876.217h.162c.543.027.991-.312 1.086-.854l.217-1.33-.217-.054h.217v-.15zm-26.047 16.28c-1.194.746-2.253 1.302-3.201 1.695-1.005.408-1.954.61-2.985.61-1.004 0-1.86-.297-2.578-.908-.678-.543-1.045-1.587-1.045-3.12 0-.312.041-.61.041-.923.027-.338.055-.637.135-.909l.774-4.205c.448-2.143 1.18-3.758 2.374-4.857 1.153-1.085 2.85-1.627 5.088-1.627.909 0 1.722.04 2.373.108l.027-.204v.204c.543.068 1.086.162 1.628.244l-2.631 13.892zm7.285-15.9c0-.474-.366-.746-.909-.814-1.167-.311-2.388-.515-3.745-.719a33.818 33.818 0 0 0-4.028-.23c-1.317 0-2.646.136-3.867.447-1.248.326-2.415.842-3.419 1.615a9.027 9.027 0 0 0-2.686 2.889c-.746 1.194-1.33 2.713-1.655 4.504l-.786 4.016a10.699 10.699 0 0 0-.272 2.496c0 1.262.163 2.374.542 3.324.408.923.923 1.695 1.52 2.306a6.931 6.931 0 0 0 2.279 1.357 8.94 8.94 0 0 0 2.741.42c.719 0 1.356-.04 2.007-.15.57-.094 1.153-.23 1.737-.433.542-.23 1.085-.475 1.628-.787.434-.231.909-.502 1.41-.841l-.135.814v.271c0 .204.041.434.136.583.176.19.407.258.719.258h1.763c.272 0 .543-.094.773-.27.218-.205.38-.435.408-.68l3.798-20.037c.041-.067.041-.203.041-.338zm-57.561 1.94h4.585c.299 0 .543-.108.787-.311.19-.177.366-.38.434-.652l.271-1.424v-.19c0-.516-.38-.855-.923-.855h-4.503l.61-3.419v-.15c0-.433-.312-.745-.719-.745h-.136l-2.36.312c-.624.068-1.058.434-1.126.976l-.543 3.026-2.917.095c-.27-.027-.542.068-.786.244a1.531 1.531 0 0 0-.408.638l-.189 1.098v.164c-.04.474.367.786.868.813l2.794.34-2.658 14.014c-.055.338-.136.637-.136.84a7.023 7.023 0 0 0-.054.788c0 1.451.542 2.564 1.628 3.174 1.003.61 2.306.895 3.798.895.434 0 .91-.013 1.384-.04.516-.042.977-.11 1.465-.136.325-.068.57-.176.733-.34.135-.135.271-.311.312-.515l.271-1.492v-.19c.04-.244-.04-.475-.312-.543-.136-.04-.271-.081-.502-.081h-2.673c-.678 0-1.194-.068-1.438-.19-.23-.081-.366-.312-.366-.896 0-.27.04-.678.096-1.153l2.713-14.095zm-74.058-.176c.678.027 1.194-.272 1.288-.855l.313-1.723v-.176c0-.502-.448-.774-.99-.774h-.095c-1.059 0-2.103.109-3.188.367-.95.217-1.968.678-3.053 1.425l.095-.475v-.19c0-.516-.34-.855-.84-.855h-2.077c-.27 0-.543.095-.773.312-.204.163-.38.393-.448.665l-3.934 20.797v.203c0 .502.38.841.882.841h2.143c.299 0 .57-.094.774-.27.27-.205.406-.408.515-.68l3.188-17.025c1.018-.57 1.994-.977 2.85-1.22.908-.231 1.993-.367 3.255-.367h.095zm88.03-7.692v-.177c0-.515-.365-.854-.868-.854h-2.251c-.299-.027-.57.108-.815.27-.23.205-.407.408-.434.68l-.244 1.804v.162c0 .543.38.856.922.856h2.24c.311 0 .542-.109.772-.3.244-.148.407-.406.489-.677l.19-1.764zm-74.558 23.7a7.563 7.563 0 0 1-1.059.163c-.475.068-.909.135-1.357.176-.475.027-.881.027-1.315.068-.407.027-.788.027-1.126.027-1.628 0-2.849-.298-3.596-.84-.705-.571-1.112-1.56-1.112-3.08 0-.407.027-.855.068-1.33.027-.474.135-.99.23-1.533l.543-2.97c.475-2.389 1.289-4.084 2.415-5.17 1.112-1.085 2.672-1.627 4.68-1.627.909 0 1.79.04 2.673.135.746.068 1.397.176 1.899.272l-2.943 15.709zm6.606-18.586c-.977-.244-2.17-.448-3.595-.65a28.897 28.897 0 0 0-4.097-.3c-1.669 0-3.161.164-4.477.516-1.33.367-2.483.936-3.46 1.764-.99.8-1.803 1.858-2.482 3.147-.638 1.29-1.153 2.85-1.519 4.707l-.543 2.985c-.204.99-.271 1.9-.271 2.781 0 1.289.163 2.415.61 3.365.434.95 1.018 1.722 1.763 2.347a7.319 7.319 0 0 0 2.674 1.343c1.016.27 2.142.42 3.323.42.339 0 .72-.013 1.194-.04.434-.068.91-.11 1.383-.136.516-.068.95-.136 1.398-.203.299-.041.543-.068.773-.137v.204c-.203.91-.407 1.67-.678 2.266-.23.61-.57 1.085-1.018 1.465a4.403 4.403 0 0 1-1.655.746c-.678.163-1.492.244-2.441.244-.584 0-1.263-.013-1.9-.068-.719-.013-1.397-.081-2.076-.108-.678-.041-1.315-.095-1.899-.136-.61-.067-1.085-.108-1.451-.163h-.177c-.23 0-.475.055-.678.19-.23.109-.34.353-.434.61l-.245 1.194v.041c-.027.096 0 .136-.027.19.027.448.408.72.91.855.61.163 1.56.34 2.889.501 1.316.178 2.809.245 4.504.245 1.6 0 2.984-.136 4.205-.38 1.154-.23 2.212-.678 3.053-1.315.882-.639 1.6-1.466 2.144-2.551.57-1.072.976-2.402 1.247-4.002l4.003-20.81v-.068c0-.082.04-.15.04-.217 0-.475-.407-.774-.99-.842zm134.603-31.379c-.475-.067-.909-.162-1.316-.203-.407-.094-.895-.135-1.356-.19a29.931 29.931 0 0 0-1.628-.081c-.625-.068-1.356-.068-2.253-.068-1.085 0-2.197.108-3.31.285a9.539 9.539 0 0 0-3.065 1.072c-.909.516-1.629 1.22-2.198 2.075-.61.882-.882 1.967-.882 3.284 0 1.966 1.357 3.73 3.867 5.263l4.001 2.401c1.045.584 1.696 1.086 1.94 1.438.326.393.435.733.462 1.112-.027.612-.136 1.059-.367 1.452-.23.38-.583.679-.95.896-.446.23-.908.434-1.451.529a9.69 9.69 0 0 1-1.804.176c-.367 0-.855 0-1.425-.04-.543-.028-1.153-.055-1.79-.095-.625-.041-1.262-.096-1.845-.136-.638-.068-1.18-.136-1.723-.177h-.312c-.543-.027-1.14.353-1.221.923l-.272 1.452v.203c0 .312.109.624.407.786.177.137.407.231.625.3a16.83 16.83 0 0 0 1.682.27c.65.082 1.262.177 1.899.204.624.04 1.194.068 1.804.109a33.71 33.71 0 0 0 1.587.027h.041c1.22 0 2.402-.095 3.569-.34a9.35 9.35 0 0 0 3.147-1.207c.922-.556 1.655-1.302 2.238-2.211.543-.977.855-2.144.855-3.5 0-.977-.312-1.9-.896-2.74-.57-.855-1.654-1.764-3.174-2.713l-3.975-2.375c-.746-.475-1.316-.881-1.723-1.262-.353-.366-.489-.678-.489-1.112 0-.516.109-.882.353-1.18.23-.312.57-.556.977-.76.407-.19.84-.339 1.384-.394a9.903 9.903 0 0 1 1.492-.135c1.221 0 2.415.027 3.568.095s2.102.136 2.849.23h.176c.597.041 1.22-.407 1.276-1.017l.244-1.356v-.231c0-.543-.475-.99-1.018-1.059zm-25.41 17.23c-1.18.719-2.197 1.261-3.12 1.628a7.8 7.8 0 0 1-2.903.583c-.95 0-1.763-.27-2.441-.841-.624-.515-.99-1.465-.99-2.998 0-.271.04-.57.067-.882a6.34 6.34 0 0 1 .135-.909l.788-4.205c.406-2.103 1.139-3.663 2.265-4.722 1.126-1.044 2.754-1.587 4.979-1.587.923 0 1.71.041 2.346.136.502.04.991.136 1.452.204l-2.578 13.593zm7.679-15.805c0-.61-.543-.909-1.126-1.017-1.125-.271-2.347-.475-3.703-.678-1.384-.164-2.713-.272-4.07-.272-1.357 0-2.673.176-3.934.489a10.384 10.384 0 0 0-3.487 1.614c-1.085.746-1.994 1.763-2.753 2.985-.733 1.22-1.317 2.754-1.656 4.544l-.787 4.042c-.19.856-.298 1.697-.298 2.537 0 1.262.204 2.416.61 3.365.366.977.882 1.791 1.533 2.401a6.682 6.682 0 0 0 2.334 1.397c.881.3 1.79.435 2.781.435h.04c.733 0 1.412-.027 2.035-.136.597-.122 1.18-.258 1.764-.475.57-.203 1.113-.475 1.682-.773.312-.177.651-.38 1.03-.61l-.08.339v.311c0 .258.08.503.217.706.19.299.543.367.868.367h1.764c.311 0 .65-.136.895-.34.23-.203.434-.475.462-.773l3.797-20.038c.082-.135.082-.27.082-.42zm-27.54 7.937h-10.825c.204-.815.475-1.52.84-2.226.408-.718.856-1.37 1.44-1.967.569-.556 1.22-.99 1.953-1.288.76-.312 1.573-.448 2.482-.448 3.053.04 4.3 1.193 4.341 3.894 0 .624-.067 1.302-.23 2.035zm2.81-7.557c-.72-.746-1.588-1.289-2.62-1.723-1.085-.407-2.305-.624-3.716-.624-3.202 0-5.916.882-7.95 2.686-2.062 1.791-3.419 4.409-4.097 7.733l-.57 2.821a11.666 11.666 0 0 0-.312 2.633c0 1.424.272 2.658.814 3.703a6.983 6.983 0 0 0 2.075 2.442c.842.638 1.818 1.086 2.904 1.384 1.085.271 2.17.407 3.296.407 1.534 0 2.85-.068 4.03-.163a106.12 106.12 0 0 0 3.744-.516c.407-.067.732-.162 1.003-.407.218-.23.313-.529.38-.881l.272-1.384v-.244c0-.204-.108-.475-.298-.61-.217-.164-.448-.19-.68-.204h-.243c-1.085.149-2.28.271-3.663.407a49.99 49.99 0 0 1-3.961.176c-1.628 0-2.93-.312-3.799-.95-.854-.61-1.302-1.532-1.302-2.984 0-.38 0-.747.082-1.153.026-.38.135-.787.23-1.222l.095-.203h14.42c.367 0 .747-.108.991-.407.19-.23.299-.515.367-.813l.366-1.724c.176-.895.244-1.736.244-2.523 0-1.112-.163-2.13-.516-3.12a6.153 6.153 0 0 0-1.587-2.537zm-22.208-.38c-.584-.61-1.33-1.085-2.212-1.451-.882-.312-1.94-.516-3.188-.516-1.493 0-2.849.217-3.962.61-.895.286-1.736.651-2.577 1.059l.027-.095V29.398c0-.231-.108-.502-.244-.706-.19-.244-.542-.366-.841-.366h-2.144c-.325 0-.678.122-.909.34-.23.23-.447.5-.502.8l-3.934 20.837v.203c0 .258.095.503.231.68.177.27.502.393.814.393h2.17c.34 0 .638-.123.91-.34.27-.203.487-.475.542-.773l3.23-17.026c1.328-.57 2.373-.95 3.255-1.153.922-.176 1.763-.271 2.605-.271 1.532-.027 2.55.271 2.957.679.434.474.705 1.112.705 2.007 0 .299-.027.638-.054 1.017a9.29 9.29 0 0 1-.176 1.181l-2.266 13.362v.204c0 .298.054.61.298.814.244.176.516.272.815.272h2.103c.311 0 .637-.137.908-.367.272-.176.448-.448.543-.76l2.306-13.416c.136-.788.217-1.533.217-2.252 0-.936-.136-1.792-.407-2.605a5.694 5.694 0 0 0-1.22-2.144zm-24.122-3.825h2.375c.27 0 .543-.041.773-.231.136-.109.38-.271.583-.488l4.437-3.73c.217-.164.38-.367.38-.68 0-.502-.543-.637-.842-.664h-2.93c-.298.027-.57.068-.814.23-.163.136-.326.299-.597.503l-3.744 3.662c-.19.204-.367.407-.407.747 0 .42.488.65.786.65zm2.51 2.143h-2.103a1.46 1.46 0 0 0-.922.34c-.271.23-.461.5-.542.8l-3.921 20.837v.203c0 .272.068.598.312.8.204.205.502.273.773.273h2.13c.34 0 .651-.123.923-.34.27-.203.434-.475.542-.773l3.934-20.851v-.217a.97.97 0 0 0-.352-.774c-.19-.203-.502-.298-.774-.298zm-6.538-6.037c0-.271-.068-.515-.272-.76-.203-.19-.502-.23-.746-.23h-2.306a1.226 1.226 0 0 0-1.357 1.112l-5.291 27.892v.203c0 .272.069.57.272.774.203.203.475.299.746.299h2.306c.312 0 .679-.136.882-.367.244-.203.407-.448.475-.746l5.29-27.946v-.231zM88.288 37.13c-.04.38-.068.76-.176 1.194l-.57 3.094c-.176 1.003-.448 1.858-.854 2.672-.407.773-.882 1.424-1.493 1.994-.542.584-1.22 1.018-1.967 1.33-.746.34-1.587.502-2.51.502-1.695 0-2.78-.367-3.418-.977-.651-.651-.99-1.628-.99-3.025 0-.68.068-1.452.27-2.334l.543-3.093c.408-2.035 1.153-3.595 2.347-4.775 1.153-1.126 2.605-1.696 4.437-1.696 1.696 0 2.78.366 3.432 1.017.637.651.977 1.656.977 3.053 0 .34 0 .706-.028 1.044zm2.578-6.782c-.746-.733-1.669-1.29-2.686-1.697-1.086-.393-2.333-.61-3.73-.61-6.648-.027-10.813 3.5-12.034 10.283l-.584 3.094c-.067.406-.094.8-.135 1.18-.068.366-.068.745-.068 1.153 0 1.18.203 2.279.543 3.256.38.99.922 1.858 1.628 2.577a8.121 8.121 0 0 0 2.645 1.696c1.086.38 2.306.57 3.663.57 1.764 0 3.365-.23 4.748-.705 1.357-.502 2.578-1.181 3.568-2.076a10.55 10.55 0 0 0 2.401-3.215c.651-1.289 1.085-2.687 1.398-4.274l.57-3.093c.067-.407.108-.773.176-1.18.027-.407.027-.787.027-1.194 0-1.153-.136-2.239-.502-3.215-.38-.99-.922-1.86-1.628-2.55zm-17.812.65l.27-1.736.042-.027v-.204c0-.271-.136-.583-.38-.773-.23-.15-.502-.217-.841-.217h-.068c-1.058 0-2.143.136-3.229.38-.882.203-1.763.61-2.713 1.194v-.217c0-.299-.068-.57-.272-.774a1.11 1.11 0 0 0-.772-.298h-2.076c-.339 0-.638.122-.95.34-.203.23-.407.5-.474.8l-3.935 20.837v.203c0 .272.068.57.312.774.204.203.475.299.746.299h2.17c.367 0 .638-.123.91-.34.27-.203.475-.475.543-.773l3.188-16.931c1.017-.57 1.94-.949 2.754-1.18.881-.244 1.926-.34 3.147-.34h.136c.718.041 1.356-.338 1.492-1.016zm-20.417 6.947H41.85a8.71 8.71 0 0 1 2.239-4.193 6.123 6.123 0 0 1 1.967-1.288c.746-.312 1.56-.448 2.482-.448 3.053.04 4.274 1.193 4.342 3.894 0 .624-.068 1.302-.244 2.035zm2.848-7.557a7.63 7.63 0 0 0-2.672-1.723c-1.058-.407-2.28-.624-3.703-.624-3.216 0-5.901.882-7.937 2.686-2.062 1.791-3.459 4.409-4.138 7.733l-.57 2.821c-.175.937-.27 1.818-.27 2.633 0 1.438.27 2.658.813 3.703a6.672 6.672 0 0 0 2.063 2.442 8.911 8.911 0 0 0 2.916 1.384c1.058.271 2.17.407 3.256.407h.04c1.52 0 2.81-.068 4.03-.19a64.912 64.912 0 0 0 3.73-.489c.408-.067.747-.162 1.018-.407.204-.23.312-.529.38-.881l.272-1.384v-.244c0-.204-.109-.475-.313-.61-.203-.164-.434-.19-.678-.204h-.27c-1.046.149-2.267.271-3.623.407a50.08 50.08 0 0 1-3.975.176c-1.656 0-2.917-.312-3.798-.95-.842-.61-1.29-1.532-1.29-2.984 0-.38 0-.747.068-1.18.04-.353.108-.76.272-1.195l.04-.203h14.407c.407 0 .788-.108 1.018-.407.204-.23.312-.515.38-.813l.339-1.724c.163-.895.271-1.736.271-2.523 0-1.112-.176-2.13-.515-3.12-.3-.977-.882-1.831-1.56-2.537zm-35.773 7.394l5.59-10.08c.243-.434.745-.502 1.084-.475.679.041.746.475.746.475l1.194 10.08h-8.614zm10.92-12.889c-.312-.434-.651-.786-1.057-1.017-.408-.271-.882-.474-1.317-.543a6.828 6.828 0 0 0-1.329-.135c-.475 0-.909.04-1.425.163a6.098 6.098 0 0 0-1.492.515 4.91 4.91 0 0 0-1.356.99 6.072 6.072 0 0 0-1.153 1.655L8.52 50.06a1.506 1.506 0 0 0-.109.57c0 .272.068.542.312.692.203.19.434.258.705.258h2.686c.272 0 .543-.096.774-.258.203-.15.407-.353.516-.584l4.436-9.157h10.785l1.085 9.022c0 .23.109.447.244.61.163.244.475.367.746.367h2.645c.3 0 .639-.096.842-.34.244-.203.34-.529.34-.841v-.203l-3.352-23.578a4.288 4.288 0 0 0-.543-1.724z" mask="url(#b)"/>
    </g>
</svg>
