<?xml version="1.0" encoding="utf-8"?>
<!-- Generator: Adobe Illustrator 21.0.0, SVG Export Plug-In . SVG Version: 6.00 Build 0)  -->
<svg version="1.1" id="Layer_1" xmlns="http://www.w3.org/2000/svg" xmlns:xlink="http://www.w3.org/1999/xlink" x="0px" y="0px"
	 viewBox="0 0 48 24" style="enable-background:new 0 0 48 24;" xml:space="preserve">
<style type="text/css">
	.st0{fill:#45A0E3;}
	.st1{fill:#0C0033;}
</style>
<g>
	<path id="a_1_" class="st0" d="M26,4c0-1.1,0.9-2,2-2h16c1.1,0,2,0.9,2,2v16c0,1.1-0.9,2-2,2H28c-1.1,0-2-0.9-2-2V4z M33.3,17.9
		l9.5-10.5L41.2,6l-8,8.8l-2.7-2.7L29,13.6L33.3,17.9L33.3,17.9z"/>
</g>
<g>
	<path id="a" class="st1" d="M2,4c0-1.1,0.9-2,2-2h16c1.1,0,2,0.9,2,2v16c0,1.1-0.9,2-2,2H4c-1.1,0-2-0.9-2-2V4z M4,20h16V4H4V20z"
		/>
</g>
</svg>
