<?xml version="1.0" encoding="utf-8"?>
<!-- Generator: Adobe Illustrator 21.0.0, SVG Export Plug-In . SVG Version: 6.00 Build 0)  -->
<svg version="1.1" id="Layer_1" xmlns="http://www.w3.org/2000/svg" xmlns:xlink="http://www.w3.org/1999/xlink" x="0px" y="0px"
	 viewBox="0 0 48 24" style="enable-background:new 0 0 48 24;" xml:space="preserve">
<style type="text/css">
	.st0{fill:none;}
	.st1{fill:#857E99;}
	.st2{fill:#45A0E3;}
</style>
<g>
	<path class="st0" d="M0,0h24v24H0V0z"/>
</g>
<path class="st1" d="M12,2C6.5,2,2,6.5,2,12s4.5,10,10,10s10-4.5,10-10S17.5,2,12,2z M12,20c-4.4,0-8-3.6-8-8s3.6-8,8-8s8,3.6,8,8
	S16.4,20,12,20z M13,15v-4c0-0.6-0.4-1-1-1h-2v2h1v3H9v2h6v-2H13z M12,9.2c0.7,0,1.2-0.6,1.2-1.2S12.7,6.8,12,6.8S10.8,7.3,10.8,8
	S11.3,9.2,12,9.2z"/>
<path class="st0" d="M0,0h24v24H0V0z"/>
<g>
	<path class="st0" d="M24,0h24v24H24V0z"/>
</g>
<path class="st2" d="M36,2c-5.5,0-10,4.5-10,10s4.5,10,10,10s10-4.5,10-10S41.5,2,36,2z M36,20c-4.4,0-8-3.6-8-8s3.6-8,8-8
	s8,3.6,8,8S40.4,20,36,20z M37,15v-4c0-0.6-0.4-1-1-1h-2v2h1v3h-2v2h6v-2H37z M36,9.2c0.7,0,1.2-0.6,1.2-1.2S36.7,6.8,36,6.8
	S34.8,7.3,34.8,8S35.3,9.2,36,9.2z"/>
<path class="st0" d="M24,0h24v24H24V0z"/>
</svg>
