<?xml version="1.0" encoding="utf-8"?>
<!-- Generator: Adobe Illustrator 21.0.0, SVG Export Plug-In . SVG Version: 6.00 Build 0)  -->
<svg version="1.1" id="Layer_1" xmlns="http://www.w3.org/2000/svg" xmlns:xlink="http://www.w3.org/1999/xlink" x="0px" y="0px"
	 viewBox="0 0 48 24" style="enable-background:new 0 0 48 24;" xml:space="preserve">
<style type="text/css">
	.st0{fill:none;}
	.st1{fill:#857E99;}
	.st2{fill:#46A0E3;}
</style>
<g>
	<path class="st0" d="M0,0h24v24H0V0z"/>
	<g>
		<path class="st0" d="M0,0h24v24H0V0z"/>
	</g>
</g>
<g>
	<path class="st0" d="M24,0h24v24H24V0z"/>
	<g>
		<path class="st0" d="M24,0h24v24H24V0z"/>
	</g>
</g>
<g>
	<path id="a" class="st1" d="M20.8,3.2C20.1,2.4,19,2,18,2c-1.1,0-2.1,0.4-2.8,1.2L3.7,14.6l0,0c-0.1,0.1-0.2,0.3-0.3,0.5L2,20.8
		c-0.1,0.3,0,0.7,0.3,0.9l0,0l0,0c0.2,0.2,0.6,0.3,1,0.3L9,20.6c0.2-0.1,0.3-0.1,0.5-0.3L20.8,8.9C21.6,8.1,22,7.1,22,6
		C22,5,21.6,3.9,20.8,3.2L20.8,3.2z M14.4,6.7l2.9,2.9l-8.6,8.6l-2.9-2.9C5.8,15.3,14.4,6.7,14.4,6.7z M4.4,19.6L5,17.3L6.8,19
		L4.4,19.6z M19.4,4.6c0.8,0.8,0.8,2.1,0,2.9l-0.7,0.7l-2.9-2.9l0.7-0.7C17.3,3.8,18.6,3.8,19.4,4.6z"/>
</g>
<g>
	<path id="a_1_" class="st2" d="M44.8,3.2C44.1,2.4,43,2,42,2c-1.1,0-2.1,0.4-2.8,1.2L27.7,14.6l0,0c-0.1,0.1-0.2,0.3-0.3,0.5
		L26,20.8c-0.1,0.3,0,0.7,0.3,0.9l0,0l0,0c0.2,0.2,0.6,0.3,1,0.3l5.7-1.4c0.2-0.1,0.3-0.1,0.5-0.3L44.8,8.9C45.6,8.1,46,7.1,46,6
		C46,5,45.6,3.9,44.8,3.2L44.8,3.2z M38.4,6.7l2.9,2.9l-8.6,8.6l-2.9-2.9C29.8,15.3,38.4,6.7,38.4,6.7z M28.4,19.6l0.6-2.3l1.8,1.7
		L28.4,19.6z M43.4,4.6c0.8,0.8,0.8,2.1,0,2.9l-0.7,0.7l-2.9-2.9l0.7-0.7C41.3,3.8,42.6,3.8,43.4,4.6z"/>
</g>
</svg>
