<?xml version="1.0" encoding="utf-8"?>
<!-- Generator: Adobe Illustrator 21.0.0, SVG Export Plug-In . SVG Version: 6.00 Build 0)  -->
<svg version="1.1" id="Layer_1" xmlns="http://www.w3.org/2000/svg" xmlns:xlink="http://www.w3.org/1999/xlink" x="0px" y="0px"
	 viewBox="0 0 24 24" style="enable-background:new 0 0 24 24;" xml:space="preserve">
<style type="text/css">
	.st0{fill:none;}
	.st1{fill:#0C0033;}
</style>
<g>
	<path class="st0" d="M0,0h24v24H0V0z"/>
</g>
<g>
	<path id="a" class="st1" d="M21.7,20.3l-5.4-5.4c1.1-1.4,1.7-3.1,1.7-4.9c0-2.1-0.8-4.2-2.3-5.7S12.1,2,10,2S5.8,2.8,4.3,4.3
		S2,7.9,2,10s0.8,4.1,2.3,5.7C5.8,17.2,7.9,18,10,18c1.8,0,3.5-0.6,4.9-1.7l5.4,5.4C20.3,21.7,21.7,20.3,21.7,20.3z M10,16
		c-1.6,0-3.1-0.6-4.2-1.8C4.6,13.1,4,11.6,4,10s0.6-3.1,1.8-4.2C6.9,4.6,8.4,4,10,4s3.1,0.6,4.2,1.8C15.4,6.9,16,8.4,16,10
		s-0.6,3.1-1.8,4.2C13.1,15.4,11.6,16,10,16z"/>
</g>
<path class="st0" d="M0,0h24v24H0V0z"/>
</svg>
