<?xml version="1.0" encoding="utf-8"?>
<!-- Generator: Adobe Illustrator 21.0.0, SVG Export Plug-In . SVG Version: 6.00 Build 0)  -->
<svg version="1.1" id="Layer_1" xmlns="http://www.w3.org/2000/svg" xmlns:xlink="http://www.w3.org/1999/xlink" x="0px" y="0px"
	 viewBox="0 0 48 24" style="enable-background:new 0 0 48 24;" xml:space="preserve">
<style type="text/css">
	.st0{fill:none;}
	.st1{fill:#857E99;}
	.st2{fill:#45A0E3;}
</style>
<g>
	<path class="st0" d="M24,0h24v24H24V0z"/>
	<g>
		<path class="st0" d="M24,0h24v24H24V0z"/>
	</g>
</g>
<g>
	<path class="st0" d="M0,0h24v24H0V0z"/>
	<g>
		<path class="st0" d="M0,0h24v24H0V0z"/>
	</g>
</g>
<g>
	<path id="a" class="st1" d="M5,19c0,1.1,0.9,2,2,2h10c1.1,0,2-0.9,2-2V7H5V19z M7,9h10v10H7V9z M15,4h6v2H3V4h6V2h6V4z M9,11v6h2
		v-6H9z M13,11v6h2v-6H13z"/>
</g>
<g>
	<path id="a_1_" class="st2" d="M29,19c0,1.1,0.9,2,2,2h10c1.1,0,2-0.9,2-2V7H29V19z M31,9h10v10H31V9z M39,4h6v2H27V4h6V2h6V4z
		 M33,11v6h2v-6H33z M37,11v6h2v-6H37z"/>
</g>
</svg>
