<?xml version="1.0" encoding="utf-8"?>
<!-- Generator: Adobe Illustrator 21.0.0, SVG Export Plug-In . SVG Version: 6.00 Build 0)  -->
<svg version="1.1" id="Layer_1" xmlns="http://www.w3.org/2000/svg" xmlns:xlink="http://www.w3.org/1999/xlink" x="0px" y="0px"
	 viewBox="0 0 48 24" style="enable-background:new 0 0 48 24;" xml:space="preserve">
<style type="text/css">
	.st0{fill:none;}
	.st1{filter:url(#Adobe_OpacityMaskFilter);}
	.st2{fill:#FFFFFF;}
	.st3{mask:url(#b);}
	.st4{fill:#857E99;}
	.st5{filter:url(#Adobe_OpacityMaskFilter_1_);}
	.st6{mask:url(#b_1_);}
	.st7{fill:#46A0E3;}
</style>
<g>
	<path class="st0" d="M0,0h24v24H0V0z"/>
	<g transform="translate(2 2)">
		<defs>
			<filter id="Adobe_OpacityMaskFilter" filterUnits="userSpaceOnUse" x="-2" y="-2" width="24" height="24">
				<feColorMatrix  type="matrix" values="1 0 0 0 0  0 1 0 0 0  0 0 1 0 0  0 0 0 1 0"/>
			</filter>
		</defs>
		<mask maskUnits="userSpaceOnUse" x="-2" y="-2" width="24" height="24" id="b">
			<g class="st1">
				<path id="a" class="st2" d="M10,0C4.5,0,0,4.5,0,10s4.5,10,10,10s10-4.5,10-10S15.5,0,10,0z M15,11h-4v4H9v-4H5V9h4V5h2v4h4V11z
					"/>
			</g>
		</mask>
		<g class="st3">
			<path class="st4" d="M-2-2h24v24H-2V-2z"/>
		</g>
	</g>
</g>
<g>
	<path class="st0" d="M24,0h24v24H24V0z"/>
	<g transform="translate(2 2)">
		<defs>
			<filter id="Adobe_OpacityMaskFilter_1_" filterUnits="userSpaceOnUse" x="22" y="-2" width="24" height="24">
				<feColorMatrix  type="matrix" values="1 0 0 0 0  0 1 0 0 0  0 0 1 0 0  0 0 0 1 0"/>
			</filter>
		</defs>
		<mask maskUnits="userSpaceOnUse" x="22" y="-2" width="24" height="24" id="b_1_">
			<g class="st5">
				<path id="a_1_" class="st2" d="M34,0c-5.5,0-10,4.5-10,10s4.5,10,10,10s10-4.5,10-10S39.5,0,34,0z M39,11h-4v4h-2v-4h-4V9h4V5h2
					v4h4V11z"/>
			</g>
		</mask>
		<g class="st6">
			<path class="st7" d="M22-2h24v24H22V-2z"/>
		</g>
	</g>
</g>
</svg>
