<?xml version="1.0" encoding="utf-8"?>
<!-- Generator: Adobe Illustrator 21.0.0, SVG Export Plug-In . SVG Version: 6.00 Build 0)  -->
<svg version="1.1" id="Layer_1" xmlns="http://www.w3.org/2000/svg" xmlns:xlink="http://www.w3.org/1999/xlink" x="0px" y="0px"
	 viewBox="0 0 24 24" style="enable-background:new 0 0 24 24;" xml:space="preserve">
<style type="text/css">
	.st0{fill:#FF7C00;}
</style>
<path class="st0" d="M21.7,11.3l-9-9c-0.4-0.4-1-0.4-1.4,0l-9,9c-0.4,0.4-0.4,1,0,1.4l9,9c0.2,0.2,0.4,0.3,0.7,0.3s0.5-0.1,0.7-0.3
	l9-9C22.1,12.3,22.1,11.7,21.7,11.3z M12,19.6L4.4,12L12,4.4l7.6,7.6L12,19.6z M11,8v6h2V8H11z M12,17.2c0.7,0,1.2-0.6,1.2-1.2
	c0-0.7-0.6-1.2-1.2-1.2s-1.2,0.6-1.2,1.2C10.8,16.7,11.3,17.2,12,17.2z"/>
</svg>
