<?xml version="1.0" encoding="utf-8"?>
<!-- Generator: Adobe Illustrator 21.0.0, SVG Export Plug-In . SVG Version: 6.00 Build 0)  -->
<svg version="1.1" id="Layer_1" xmlns="http://www.w3.org/2000/svg" xmlns:xlink="http://www.w3.org/1999/xlink" x="0px" y="0px"
	 viewBox="0 0 48 24" style="enable-background:new 0 0 48 24;" xml:space="preserve">
<style type="text/css">
	.st0{fill:none;}
	.st1{fill:#857E99;}
	.st2{fill:#46A0E3;}
</style>
<g>
	<path class="st0" d="M0,0h24v24H0V0z"/>
	<g transform="translate(3 3)">
		<g>
			<path class="st0" d="M-3-3h24v24H-3V-3z"/>
		</g>
	</g>
</g>
<g>
	<path class="st0" d="M24,0h24v24H24V0z"/>
	<g transform="translate(3 3)">
		<g>
			<path class="st0" d="M21-3h24v24H21V-3z"/>
		</g>
	</g>
</g>
<g>
	<path id="a" class="st1" d="M10.1,15.6l1.4,1.4l5-5l-5-5l-1.4,1.4l2.6,2.6H3v2h9.7L10.1,15.6z M19,3H5C3.9,3,3,3.9,3,5v4h2V5h14v14
		H5v-4H3v4c0,1.1,0.9,2,2,2h14c1.1,0,2-0.9,2-2V5C21,3.9,20.1,3,19,3z"/>
</g>
<g>
	<path id="a_1_" class="st2" d="M34.1,15.6l1.4,1.4l5-5l-5-5l-1.4,1.4l2.6,2.6H27v2h9.7L34.1,15.6z M43,3H29c-1.1,0-2,0.9-2,2v4h2V5
		h14v14H29v-4h-2v4c0,1.1,0.9,2,2,2h14c1.1,0,2-0.9,2-2V5C45,3.9,44.1,3,43,3z"/>
</g>
</svg>
