<?xml version="1.0" encoding="utf-8"?>
<!-- Generator: Adobe Illustrator 21.0.0, SVG Export Plug-In . SVG Version: 6.00 Build 0)  -->
<svg version="1.1" id="Layer_1" xmlns="http://www.w3.org/2000/svg" xmlns:xlink="http://www.w3.org/1999/xlink" x="0px" y="0px"
	 viewBox="0 0 48 24" style="enable-background:new 0 0 48 24;" xml:space="preserve">
<style type="text/css">
	.st0{fill:none;}
	.st1{fill:#857E99;}
	.st2{fill:#46A0E3;}
</style>
<g>
	<path class="st0" d="M0,0h24v24H0V0z"/>
</g>
<g>
	<path class="st0" d="M24,0h24v24H24V0z"/>
</g>
<g>
	<path id="a" class="st1" d="M12,12c-2.2,0-4-1.8-4-4s1.8-4,4-4s4,1.8,4,4S14.2,12,12,12z M12,13c4.7,0,8,2.5,8,6v1H4v-1
		C4,15.5,7.3,13,12,13z"/>
</g>
<path class="st0" d="M0,0h24v24H0V0z"/>
<g>
	<path id="a_1_" class="st2" d="M36,12c-2.2,0-4-1.8-4-4s1.8-4,4-4s4,1.8,4,4S38.2,12,36,12z M36,13c4.7,0,8,2.5,8,6v1H28v-1
		C28,15.5,31.3,13,36,13z"/>
</g>
<path class="st0" d="M24,0h24v24H24V0z"/>
</svg>
