<?xml version="1.0" encoding="utf-8"?>
<!-- Generator: Adobe Illustrator 21.0.0, SVG Export Plug-In . SVG Version: 6.00 Build 0)  -->
<svg version="1.1" id="Layer_1" xmlns="http://www.w3.org/2000/svg" xmlns:xlink="http://www.w3.org/1999/xlink" x="0px" y="0px"
	 viewBox="0 0 48 24" style="enable-background:new 0 0 48 24;" xml:space="preserve">
<style type="text/css">
	.st0{fill:none;}
	.st1{filter:url(#Adobe_OpacityMaskFilter);}
	.st2{fill:#FFFFFF;}
	.st3{mask:url(#b);}
	.st4{fill:#0C0033;}
	.st5{filter:url(#Adobe_OpacityMaskFilter_1_);}
	.st6{mask:url(#b_1_);}
	.st7{fill:#46A0E3;}
</style>
<g>
	<path class="st0" d="M0,0h24v24H0V0z"/>
	<defs>
		<filter id="Adobe_OpacityMaskFilter" filterUnits="userSpaceOnUse" x="0" y="0" width="24" height="24">
			<feColorMatrix  type="matrix" values="1 0 0 0 0  0 1 0 0 0  0 0 1 0 0  0 0 0 1 0"/>
		</filter>
	</defs>
	<mask maskUnits="userSpaceOnUse" x="0" y="0" width="24" height="24" id="b">
		<g class="st1">
			<path id="a" class="st2" d="M20.7,4.7l-1.4-1.4L12,10.6L4.7,3.3L3.3,4.7l7.3,7.3l-7.3,7.3l1.4,1.4l7.3-7.3l7.3,7.3l1.4-1.4
				L13.5,12L20.7,4.7z"/>
		</g>
	</mask>
	<g class="st3">
		<path class="st4" d="M0,0h24v24H0V0z"/>
	</g>
</g>
<g>
	<path class="st0" d="M24,0h24v24H24V0z"/>
	<defs>
		<filter id="Adobe_OpacityMaskFilter_1_" filterUnits="userSpaceOnUse" x="24" y="0" width="24" height="24">
			<feColorMatrix  type="matrix" values="1 0 0 0 0  0 1 0 0 0  0 0 1 0 0  0 0 0 1 0"/>
		</filter>
	</defs>
	<mask maskUnits="userSpaceOnUse" x="24" y="0" width="24" height="24" id="b_1_">
		<g class="st5">
			<path id="a_1_" class="st2" d="M44.7,4.7l-1.4-1.4L36,10.6l-7.3-7.3l-1.4,1.4l7.3,7.3l-7.3,7.3l1.4,1.4l7.3-7.3l7.3,7.3l1.4-1.4
				L37.5,12L44.7,4.7z"/>
		</g>
	</mask>
	<g class="st6">
		<path class="st7" d="M24,0h24v24H24V0z"/>
	</g>
</g>
</svg>
