<?xml version="1.0" encoding="utf-8"?>
<!-- Generator: Adobe Illustrator 21.0.0, SVG Export Plug-In . SVG Version: 6.00 Build 0)  -->
<svg version="1.1" id="Layer_1" xmlns="http://www.w3.org/2000/svg" xmlns:xlink="http://www.w3.org/1999/xlink" x="0px" y="0px"
	 viewBox="0 0 48 24" style="enable-background:new 0 0 48 24;" xml:space="preserve">
<style type="text/css">
	.st0{fill:none;}
	.st1{filter:url(#Adobe_OpacityMaskFilter);}
	.st2{fill:#FFFFFF;}
	.st3{mask:url(#b);}
	.st4{fill:#857E99;}
	.st5{filter:url(#Adobe_OpacityMaskFilter_1_);}
	.st6{mask:url(#b_1_);}
	.st7{fill:#46A0E3;}
</style>
<g>
	<path class="st0" d="M0,0h24v24H0V0z"/>
	<defs>
		<filter id="Adobe_OpacityMaskFilter" filterUnits="userSpaceOnUse" x="0" y="0" width="24" height="24">
			<feColorMatrix  type="matrix" values="1 0 0 0 0  0 1 0 0 0  0 0 1 0 0  0 0 0 1 0"/>
		</filter>
	</defs>
	<mask maskUnits="userSpaceOnUse" x="0" y="0" width="24" height="24" id="b">
		<g class="st1">
			<path id="a" class="st2" d="M20,4H4C2.9,4,2,4.9,2,6l0,12c0,1.1,0.9,2,2,2h16c1.1,0,2-0.9,2-2V6C22,4.9,21.1,4,20,4z M20,18H4v-6
				h16V18z M20,8H4V6h16V8z"/>
		</g>
	</mask>
	<g class="st3">
		<path class="st4" d="M0,0h24v24H0V0z"/>
	</g>
</g>
<g>
	<path class="st0" d="M24,0h24v24H24V0z"/>
	<defs>
		<filter id="Adobe_OpacityMaskFilter_1_" filterUnits="userSpaceOnUse" x="24" y="0" width="24" height="24">
			<feColorMatrix  type="matrix" values="1 0 0 0 0  0 1 0 0 0  0 0 1 0 0  0 0 0 1 0"/>
		</filter>
	</defs>
	<mask maskUnits="userSpaceOnUse" x="24" y="0" width="24" height="24" id="b_1_">
		<g class="st5">
			<path id="a_1_" class="st2" d="M44,4H28c-1.1,0-2,0.9-2,2l0,12c0,1.1,0.9,2,2,2h16c1.1,0,2-0.9,2-2V6C46,4.9,45.1,4,44,4z M44,18
				H28v-6h16V18z M44,8H28V6h16V8z"/>
		</g>
	</mask>
	<g class="st6">
		<path class="st7" d="M24,0h24v24H24V0z"/>
	</g>
</g>
</svg>
