<?xml version="1.0" encoding="utf-8"?>
<!-- Generator: Adobe Illustrator 21.0.0, SVG Export Plug-In . SVG Version: 6.00 Build 0)  -->
<svg version="1.1" id="Layer_1" xmlns="http://www.w3.org/2000/svg" xmlns:xlink="http://www.w3.org/1999/xlink" x="0px" y="0px"
	 viewBox="0 0 24 24" style="enable-background:new 0 0 24 24;" xml:space="preserve">
<style type="text/css">
	.st0{fill:none;}
	.st1{filter:url(#Adobe_OpacityMaskFilter);}
	.st2{fill:#FFFFFF;}
	.st3{mask:url(#b);}
	.st4{fill:#857E99;}
</style>
<g>
	<path class="st0" d="M0,0h24v24H0V0z"/>
	<defs>
		<filter id="Adobe_OpacityMaskFilter" filterUnits="userSpaceOnUse" x="0" y="0" width="24" height="24">
			<feColorMatrix  type="matrix" values="1 0 0 0 0  0 1 0 0 0  0 0 1 0 0  0 0 0 1 0"/>
		</filter>
	</defs>
	<mask maskUnits="userSpaceOnUse" x="0" y="0" width="24" height="24" id="b">
		<g class="st1">
			<path id="a" class="st2" d="M19.2,5h-0.9V2h-1.8v5h-0.9V5H9.3V2H7.5v5H6.6V5H4.8C3.8,5,3,5.9,3,7v13c0,1.1,0.8,2,1.8,2h14.4
				c1,0,1.8-0.9,1.8-2V7C21,5.9,20.2,5,19.2,5z M19.2,20H4.8V9h14.4L19.2,20z"/>
		</g>
	</mask>
	<g class="st3">
		<path class="st4" d="M0,0h24v24H0V0z"/>
	</g>
</g>
</svg>
