<?xml version="1.0" encoding="utf-8"?>
<!-- Generator: Adobe Illustrator 21.0.0, SVG Export Plug-In . SVG Version: 6.00 Build 0)  -->
<svg version="1.1" id="Layer_1" xmlns="http://www.w3.org/2000/svg" xmlns:xlink="http://www.w3.org/1999/xlink" x="0px" y="0px"
	 viewBox="0 0 120.8 32" style="enable-background:new 0 0 120.8 32;" xml:space="preserve">
<style type="text/css">
	.st0{filter:url(#Adobe_OpacityMaskFilter);}
	.st1{fill:#FFFFFF;}
	.st2{mask:url(#b_1_);fill:#7F7993;fill-opacity:0.807;}
</style>
<g>
	<defs>
		<filter id="Adobe_OpacityMaskFilter" filterUnits="userSpaceOnUse" x="0" y="0.1" width="120.2" height="32">
			<feColorMatrix  type="matrix" values="1 0 0 0 0  0 1 0 0 0  0 0 1 0 0  0 0 0 1 0"/>
		</filter>
	</defs>
	<mask maskUnits="userSpaceOnUse" x="0" y="0.1" width="120.2" height="32" id="b_1_">
		<g class="st0">
			<path id="a_1_" class="st1" d="M120.2,16.1v16H0v-32h120.2V16.1z"/>
		</g>
	</mask>
	<path class="st2" d="M46.4,6.1h-1l-1.1,3.1l-1.2-3.1h-1l1.8,4.2c-0.2,0.4-0.3,0.5-0.6,0.5c-0.2,0-0.4-0.1-0.6-0.2l-0.3,0.7
		c0.3,0.2,0.6,0.3,1,0.3c0.7,0,1.1-0.3,1.4-1.2C44.7,10.5,46.4,6.1,46.4,6.1z M40.7,8.2c0,0.8-0.5,1.4-1.2,1.4
		c-0.7,0-1.2-0.5-1.2-1.4c0-0.8,0.6-1.4,1.2-1.4C40.1,6.9,40.7,7.4,40.7,8.2L40.7,8.2z M41.7,8.2c0-1.4-1-2.2-2-2.2
		c-0.7,0-1.1,0.4-1.4,0.8V4.5h-1v5.8h1V9.7c0.3,0.4,0.7,0.7,1.4,0.7C40.7,10.4,41.7,9.7,41.7,8.2L41.7,8.2z M32.8,8.2
		c0,0.8-0.6,1.4-1.2,1.4c-0.7,0-1.2-0.5-1.2-1.4c0-0.8,0.5-1.4,1.2-1.4C32.2,6.9,32.8,7.4,32.8,8.2z M33.7,10.4V4.5h-1v2.3
		C32.5,6.4,32,6,31.3,6c-1,0-2,0.8-2,2.2c0,1.4,1,2.2,2,2.2c0.7,0,1.1-0.4,1.4-0.8v0.7L33.7,10.4L33.7,10.4z M25.5,7.9
		c0.1-0.7,0.5-1.1,1.1-1.1c0.6,0,1,0.5,1.1,1.1H25.5z M25.5,8.6h3.1c0-0.1,0-0.2,0-0.3c0-1.2-0.7-2.3-2-2.3c-1.2,0-2.1,1-2.1,2.2
		c0,1.3,0.9,2.2,2.2,2.2c0.8,0,1.3-0.3,1.7-0.8l-0.6-0.5c-0.3,0.3-0.7,0.5-1.1,0.5C26.1,9.7,25.6,9.3,25.5,8.6L25.5,8.6z M22.6,8.7
		c0-1.1,0.6-1.7,1.4-1.7h0.1V6c-0.7,0-1.2,0.4-1.5,1v-1h-1v4.2h1C22.6,10.4,22.6,8.7,22.6,8.7z M17.6,7.9c0.1-0.7,0.5-1.1,1.1-1.1
		c0.6,0,1,0.5,1.1,1.1H17.6z M17.6,8.6h3.1c0-0.1,0-0.2,0-0.3c0-1.2-0.7-2.3-2-2.3c-1.2,0-2.1,1-2.1,2.2c0,1.3,0.9,2.2,2.2,2.2
		c0.8,0,1.3-0.3,1.7-0.8l-0.6-0.5c-0.3,0.3-0.7,0.5-1.1,0.5C18.2,9.7,17.7,9.3,17.6,8.6L17.6,8.6z M13.4,6.1h-0.8L11.7,9l-0.8-2.9
		h-1l1.4,4.3h0.9L13,7.5l0.9,2.9h0.9l1.4-4.3h-1L14.4,9C14.4,9,13.4,6.1,13.4,6.1z M8.5,8.3C8.5,9,8,9.6,7.2,9.6
		C6.4,9.6,5.9,9,5.9,8.2c0-0.7,0.5-1.4,1.3-1.4C7.9,6.9,8.5,7.5,8.5,8.3z M9.4,8.2C9.4,7,8.5,6,7.2,6C5.9,6,4.9,7,4.9,8.3
		c0,1.2,0.9,2.2,2.2,2.2C8.5,10.5,9.4,9.5,9.4,8.2z M3.3,6.7c0,0.6-0.5,1-1.2,1H1v-2h1.1C2.8,5.6,3.3,6,3.3,6.7z M4.3,6.6
		c0-1.1-0.8-1.9-2.1-1.9H0v5.6h1V8.6h1.1C3.3,8.6,4.3,7.9,4.3,6.6L4.3,6.6z M117.2,10.3c-0.7-1.5-2.2-2.4-3.8-2.4
		c0,0-1.1-0.1-1.8-0.1c-0.7,0-1.2,0-1.8,0.1c-2.4,0.2-4.4,1.4-4.4,3.9c0,0.6-0.1,2.3-0.1,2.7c0,0.4,0,2.1,0.1,3.3
		c0.1,2.7,2,4.2,4.7,4.2c0.8,0,1.1,0,1.5,0c0.4,0,0.9,0,1.5,0c1.9-0.1,3.5-1,4.1-2.4V10.3L117.2,10.3z M117.2,22.6
		c-1.1,1.1-2.5,1.8-4.1,1.8h-4.8c-3.1,0-5.6-2.4-5.6-6.2c0,0,0-3.2,0-3.6s0-2.7,0-2.7c0-3.6,2.5-6.2,6.3-6.5c0.6,0,1.5-0.1,1.9-0.1
		c0.4,0,1,0,2,0.1c1.8,0.1,3.4,0.8,4.4,1.9V5.9c0-0.3,0.2-0.5,0.5-0.5h2.1c0.3,0,0.5,0.2,0.5,0.5c0,0,0,0,0,0v21
		c0,4.5-3.6,5.2-5.6,5.2h-5.8c-4.5,0-5.8-2.6-5.8-4.7v-0.7c0-0.3,0.2-0.5,0.5-0.5h1.8c0.2,0,0.5,0.2,0.5,0.5v0.8
		c0,1.1,0.4,2.2,2.7,2.2h5.8c3.2,0,3-2.4,3-2.4L117.2,22.6L117.2,22.6z M55.9,0.7c0-0.3-0.3-0.6-0.6-0.6c0,0,0,0,0,0h-1.8
		c-0.3,0-0.6,0.3-0.6,0.6V3c0,0.3,0.3,0.6,0.6,0.6h1.8c0.3,0,0.6-0.3,0.6-0.6c0,0,0,0,0,0C55.9,3,55.9,0.7,55.9,0.7z M55.9,6
		c0-0.3-0.2-0.5-0.5-0.5c0,0,0,0,0,0h-2.1c-0.3,0-0.5,0.2-0.5,0.5c0,0,0,0,0,0v18.7c0,0.2,0.2,0.5,0.5,0.5h2.1
		c0.3,0,0.5-0.2,0.5-0.5V6z M91.1,21.4c0,2.2,1.2,3.7,3.4,3.7l5.1,0c0.3,0,0.5-0.2,0.5-0.5V23c0-0.3-0.1-0.4-0.4-0.4h-3.2v0H96
		c-1.8,0-2-0.4-2-3.2l0-11.5h4.7c0.3,0,0.5-0.2,0.5-0.5V6c0-0.3-0.2-0.5-0.5-0.5c0,0,0,0,0,0h-4.7V2.7c0-0.3-0.2-0.5-0.5-0.5
		c0,0,0,0,0,0h-2.1c-0.3,0-0.5,0.2-0.5,0.5L91.1,21.4L91.1,21.4z M75.4,5.7c0.5,0,0.8,0.3,0.9,0.7c0.1,0.3,3.9,16.2,3.9,16.3
		c0,0.1,0.1,0.2,0.2,0.2h0.3c0.2,0,0.3-0.2,0.3-0.2L84.8,6c0.1-0.4,0.3-0.5,0.6-0.5h2c0.2,0,0.5,0.2,0.4,0.5l-4.3,18.2
		c-0.2,0.7-1,0.9-1.3,0.9h-3.4c-0.6,0-0.9-0.7-1-0.9L74.1,8.5c0,0,0-0.2-0.2-0.2h-0.5c-0.2,0-0.2,0.2-0.2,0.2l-3.8,15.7
		c-0.1,0.4-0.5,0.9-1.1,0.9h-3.4c-0.3,0-0.9-0.2-1.1-0.9L59.4,6.1c-0.1-0.2,0.1-0.5,0.3-0.5c0,0,0.1,0,0.1,0h2
		c0.3,0,0.5,0.2,0.6,0.5c0,0,3.9,16.6,3.9,16.7c0,0.1,0.1,0.2,0.3,0.2h0.3c0.1,0,0.2-0.1,0.2-0.2c0-0.1,3.8-16,3.9-16.3
		c0.1-0.2,0.3-0.7,0.9-0.7C71.8,5.7,75.4,5.7,75.4,5.7z"/>
</g>
</svg>
