<svg xmlns="http://www.w3.org/2000/svg" width="240" height="61" viewBox="0 0 240 61">
    <path fill="#46A0E4" fill-rule="evenodd" d="M110.27 46.293c0-.067-5.287 13.76-5.287 13.76h4.95l17.214-45.075h-4.744l-9.557 25.281c0-.067-9.828-25.28-9.828-25.28h-5.354l12.607 31.314zm-23.179-7.32v-7.592c-9.15 0-12.608.476-14.437 1.423-1.491.814-1.625 3.12-1.625 5.016 0 3.93 1.694 4.744 4.81 4.744 3.932 0 9.084-2.166 11.252-3.59zM66.013 37.55c0-4.068.814-6.915 3.32-8.134 3.999-1.898 8.743-2.033 17.758-2.033v-1.625c0-5.423-.882-7.593-6.71-7.593-4.541 0-8.675.812-10.234 1.22l-.948-4.337c1.49-.34 5.421-1.357 11.318-1.357 8.337 0 11.521 2.914 11.521 11.252v21.556h-3.59l-1.018-3.392c-1.492.95-6.777 3.862-12.947 3.862-3.998 0-8.47-1.556-8.47-9.419zm-10.911-6.845c0-9.83-1.9-11.93-6.778-11.93-3.932 0-9.354 2.168-11.659 3.525v17.485c1.897.883 7.66 2.713 11.59 2.713 4.881 0 6.847-1.968 6.847-11.793zM31.718 14.978h3.593l1.015 3.187c1.695-.947 7.797-3.932 13.489-3.932 4.676 0 10.37.882 10.37 16.334 0 15.454-6.033 16.471-10.642 16.471-5.42 0-11.115-2.169-12.878-2.914v13.279h-4.947V14.978zM13.96 30.773h9.218V25.89h-9.218v4.883zM.135 46.499h4.948v-31.52H.135v31.52zM0 7.049h5.219V0H0v7.049zM136.978 55.09l3.85-1.305.284-48.036-3.908 1.326-.226 48.015zm94.74-7.725c.613.123 1.738.306 3.64.306 3.762 0 4.642-1.022 4.642-4.192 0-2.904-.43-3.455-3.559-4.846-1.799-.859-1.963-1.002-1.963-2.413 0-1.166.328-1.575 1.595-1.575 1.023 0 2.352.205 2.986.327l.388-2.331c-.695-.164-1.84-.307-3.353-.307-3.354 0-4.213 1.084-4.213 3.865 0 2.986.389 3.436 3.477 4.826 1.902.982 2.004 1.146 2.004 2.516 0 1.493-.327 1.86-1.963 1.86-1.35 0-3.068-.286-3.354-.367l-.328 2.331zm-10.758.123h2.455v-9.367l4.274 9.367h2.29v-14.97h-2.434v8.998l-4.07-8.998h-2.515v14.97zm-4.295-6.749v-1.308c0-4.132-.307-4.827-2.168-4.827-1.86 0-2.188.634-2.188 4.786v1.288c0 4.13.328 4.785 2.188 4.785 1.882 0 2.168-.593 2.168-4.724zm-7.034-.736c0-6.462.94-7.71 4.866-7.71 3.947 0 4.827 1.207 4.827 7.669 0 6.483-.88 7.75-4.827 7.75s-4.866-1.226-4.866-7.709zm-4.418 7.485h2.658v-14.97h-2.658v14.97zm-7.384 0h2.639V34.912h3.251v-2.393h-9.141v2.373h3.251v12.597zm-13.66-5.277c0 4.479.838 5.501 4.662 5.501 3.803 0 4.54-1.124 4.54-5.541v-9.653h-2.516v9.653c0 2.515-.266 3.087-2.004 3.087-1.718 0-2.024-.654-2.024-3.128v-9.612h-2.659v9.693zm-8.467 5.277h7.484v-2.332h-4.826V32.52h-2.658v14.97zm-4.296-6.749v-1.308c0-4.132-.307-4.827-2.167-4.827-1.861 0-2.189.634-2.189 4.786v1.288c0 4.13.328 4.785 2.189 4.785 1.88 0 2.167-.593 2.167-4.724zm-7.034-.736c0-6.462.94-7.71 4.867-7.71 3.946 0 4.826 1.207 4.826 7.669 0 6.483-.88 7.75-4.826 7.75-3.947 0-4.867-1.226-4.867-7.709zm-9.429 7.362c.614.123 1.738.306 3.64.306 3.763 0 4.642-1.022 4.642-4.192 0-2.904-.43-3.455-3.558-4.846-1.8-.859-1.963-1.002-1.963-2.413 0-1.166.327-1.575 1.595-1.575 1.022 0 2.352.205 2.985.327l.39-2.331c-.697-.164-1.841-.307-3.355-.307-3.353 0-4.212 1.084-4.212 3.865 0 2.986.388 3.436 3.476 4.826 1.902.982 2.005 1.146 2.005 2.516 0 1.493-.328 1.86-1.964 1.86-1.35 0-3.067-.286-3.353-.367l-.328 2.331zm65.383-17.106h2.638V17.683h3.252V15.29h-9.142v2.372h3.252V30.26zm-13.702 0h2.454v-9.366l4.274 9.366h2.29V15.29h-2.433v8.999l-4.07-8.999h-2.515v14.97zm-9.08 0h7.484v-2.331h-4.826v-4.213h3.62v-2.31h-3.62v-3.723h4.826V15.29h-7.484v14.97zm-13.294 0h2.393v-8.691l2.229 7.484h1.84l2.25-7.525v8.732h2.536V15.29h-2.802l-2.822 9.448-2.822-9.448h-2.802v14.97zm-7.813-4.908v4.908h2.66v-4.908L182.9 15.29h-2.598l-2.453 6.626-2.475-6.626h-2.76l3.823 10.062zm-8.037-6.38l-1.33 6.728h2.68l-1.35-6.728zm-2.29 11.288h-2.557l3.579-15.031h2.68l3.578 15.03h-2.7l-.49-2.29h-3.6l-.49 2.29zm-6.116-6.83c1.023 0 1.411-.696 1.411-2.925s-.43-2.945-1.43-2.945h-2.067v5.87h2.086zm-4.723-8.14h5.05c2.802 0 3.681 1.33 3.681 5.174 0 3.845-.92 5.215-3.721 5.215h-2.373v4.581h-2.637V15.29z"/>
</svg>
